<?xml version="1.0" encoding="iso-8859-1"?>
<!-- Generator: Adobe Illustrator 25.0.0, SVG Export Plug-In . SVG Version: 6.00 Build 0)  -->
<svg version="1.1" id="Layer_1" xmlns="http://www.w3.org/2000/svg" xmlns:xlink="http://www.w3.org/1999/xlink" x="0px" y="0px"
	 viewBox="0 0 512 512" style="enable-background:new 0 0 512 512;" xml:space="preserve">
<g>
	<path style="fill:#FFFFFF;" d="M78.414,512h165.697V331.42H184.58v-59.531h59.531v-74.414c0-41.034,33.38-74.414,74.414-74.414
		h74.414v59.531h-59.531c-16.414,0-29.765,13.352-29.765,29.765v59.531h86.608l-9.922,59.531h-76.686V512h133.945
		C478.616,512,512,478.616,512,437.586V78.414C512,37.38,478.616,4,437.586,4H78.414C37.38,4,4,37.38,4,78.414v359.173
		C4,478.616,37.38,512,78.414,512L78.414,512z M33.765,78.414c0-24.621,20.027-44.648,44.648-44.648h359.173
		c24.615,0,44.648,20.027,44.648,44.648v359.173c0,24.615-20.033,44.648-44.648,44.648H333.407V361.186h72.137l19.844-119.062
		h-91.98v-29.765h89.296V93.296H318.524c-57.449,0-104.179,46.732-104.179,104.179v44.648h-59.531v119.062h59.531v121.049H78.414
		c-24.621,0-44.648-20.033-44.648-44.648V78.414z"/>
</g>
</svg>
