<?xml version="1.0" encoding="iso-8859-1"?>
<!-- Generator: Adobe Illustrator 25.0.0, SVG Export Plug-In . SVG Version: 6.00 Build 0)  -->
<svg version="1.1" id="Capa_1" xmlns="http://www.w3.org/2000/svg" xmlns:xlink="http://www.w3.org/1999/xlink" x="0px" y="0px"
	 viewBox="-49 141 512 512" style="enable-background:new -49 141 512 512;" xml:space="preserve">
<path style="fill:#FFFFFF;" d="M313,653H101c-82.71,0-150-67.29-150-150V291c0-82.71,67.29-150,150-150h212
	c82.71,0,150,67.29,150,150v212C463,585.71,395.71,653,313,653z M101,161c-71.682,0-130,58.318-130,130v212
	c0,71.682,58.318,130,130,130h212c71.682,0,130-58.318,130-130V291c0-71.682-58.318-130-130-130H101z"/>
<path style="fill:#FFFFFF;" d="M313,609h-60.333c-5.523,0-10-4.477-10-10s4.477-10,10-10H313c47.42,0,86-38.58,86-86V291
	c0-47.42-38.58-86-86-86H101c-47.42,0-86,38.58-86,86v212c0,47.42,38.58,86,86,86h61c5.523,0,10,4.477,10,10s-4.477,10-10,10h-61
	C42.551,609-5,561.449-5,503V291c0-58.449,47.551-106,106-106h212c58.449,0,106,47.551,106,106v212C419,561.449,371.449,609,313,609
	z"/>
<path style="fill:#FFFFFF;" d="M207,609c-2.63,0-5.21-1.07-7.07-2.93S197,601.63,197,599s1.07-5.21,2.93-7.07
	c1.86-1.86,4.44-2.93,7.07-2.93s5.21,1.07,7.07,2.93c1.86,1.86,2.93,4.44,2.93,7.07s-1.07,5.21-2.93,7.07S209.63,609,207,609z"/>
<path style="fill:#FFFFFF;" d="M119.117,313.939c-2.657,0-5.308-1.052-7.275-3.137c-3.791-4.017-3.607-10.346,0.41-14.136
	l0.443-0.417c4.031-3.775,10.358-3.569,14.135,0.461c3.776,4.03,3.569,10.359-0.461,14.135l-0.391,0.367
	C124.046,313.035,121.579,313.939,119.117,313.939z"/>
<path style="fill:#FFFFFF;" d="M207,535c-76.093,0-138-61.907-138-138c0-23.875,6.197-47.408,17.921-68.054
	c2.728-4.803,8.831-6.484,13.634-3.758c4.803,2.728,6.485,8.832,3.758,13.634C94.295,356.463,89,376.581,89,397
	c0,65.065,52.935,118,118,118s118-52.935,118-118s-52.935-118-118-118c-19.055,0-37.238,4.398-54.043,13.073
	c-4.907,2.532-10.939,0.608-13.473-4.299c-2.533-4.908-0.608-10.94,4.299-13.473C163.176,264.291,185.036,259,207,259
	c76.093,0,138,61.907,138,138S283.093,535,207,535z"/>
<path style="fill:#FFFFFF;" d="M207,487c-49.626,0-90-40.374-90-90s40.374-90,90-90s90,40.374,90,90S256.626,487,207,487z M207,327
	c-38.598,0-70,31.402-70,70s31.402,70,70,70s70-31.402,70-70S245.598,327,207,327z"/>
<path style="fill:#FFFFFF;" d="M338.25,303.75c-20.953,0-38-17.047-38-38s17.047-38,38-38s38,17.047,38,38
	S359.203,303.75,338.25,303.75z M338.25,247.75c-9.925,0-18,8.075-18,18c0,9.925,8.075,18,18,18s18-8.075,18-18
	C356.25,255.825,348.175,247.75,338.25,247.75z"/>
</svg>
