<?xml version="1.0" encoding="utf-8"?>
<!-- Generator: Adobe Illustrator 25.0.0, SVG Export Plug-In . SVG Version: 6.00 Build 0)  -->
<svg version="1.1" id="Layer_1" xmlns="http://www.w3.org/2000/svg" xmlns:xlink="http://www.w3.org/1999/xlink" x="0px" y="0px"
	 viewBox="0 0 216 216" style="enable-background:new 0 0 216 216;" xml:space="preserve">
<style type="text/css">
	.st0{fill:#407CBF;}
	.st1{fill:#0E0E0E;stroke:#000000;stroke-width:2;stroke-miterlimit:10;}
	.st2{fill:#0E0E0E;}
</style>
<g>
	<path class="st0" d="M16.02,119.23v-1.9c1.87-0.45,3.71-0.89,5.37-1.41c3.29-1.03,4.68-2.4,4.68-4.69c0-1.07-0.31-1.74-1.04-2.3
		c-0.97-0.8-2.29-1.29-3.57-1.89c-1.7-0.75-3.01-1.3-3.95-2.36c-0.8-0.89-1.35-2.03-1.35-3.94c0-4.88,3.46-8.05,8.9-9.75
		c1.73-0.54,3.74-1,5.44-1.19v1.9c-1.49,0.29-2.98,0.66-4.29,1.07c-2.91,0.91-4.43,2.22-4.43,4.4c0,1.07,0.35,1.76,1.04,2.34
		c0.97,0.84,2.29,1.36,3.64,1.97c1.66,0.76,2.98,1.35,3.91,2.34c0.87,0.87,1.45,2,1.45,3.94c0,4.78-3.91,8.29-9.07,9.91
		C20.48,118.38,18.09,118.92,16.02,119.23z"/>
	<path class="st0" d="M34.78,88.13l9.35-2.94c4.75-1.49,8.07-0.42,8.07,5.53c0,5.85-2.94,9.48-8,11.06l-3.36,1.05v8.93l-6.06,1.9
		V88.13z M42.99,100.09c2.25-0.71,3.12-2.16,3.12-7.28c0-5.02-0.87-5.93-3.15-5.21l-2.11,0.66v12.5L42.99,100.09z"/>
	<path class="st0" d="M55.35,81.67l6.03-1.89v25.55l-6.03,1.89V81.67z"/>
	<path class="st0" d="M67.78,87.01v16.31l-2.42,0.76V78.53l3.74-1.17l10.6,12.46V74.02l2.39-0.75v25.55l-3.46,1.09L67.78,87.01z"/>
</g>
<g>
	<path class="st0" d="M62.64,124.16l-6.61-14.4l6.65-2.09l4.92,11.33l5.02-14.46l2.49-0.78l-6.44,18.29v9.28l-6.03,1.89V124.16z"/>
	<path class="st0" d="M75.72,116.35c0-9.04,3.36-14.11,9.9-16.16c6.55-2.06,9.9,0.91,9.9,9.94c0,9.04-3.36,14.11-9.9,16.16
		C79.08,128.35,75.72,125.38,75.72,116.35z M89.34,112.07c0-9.45-0.83-10.82-3.71-9.92c-2.91,0.91-3.71,2.83-3.71,12.24
		c0,9.38,0.8,10.79,3.71,9.88C88.5,123.38,89.34,121.46,89.34,112.07z"/>
	<path class="st0" d="M98.79,113.71V96.33l6.16-1.94v17.55c0,3.98,1,5.22,4.26,4.2c3.36-1.05,4.4-2.9,4.4-6.92V91.67l2.46-0.77
		v17.42c0,6.33-2.81,9.33-8.52,11.12C101.87,121.19,98.79,120.01,98.79,113.71z"/>
	<path class="st0" d="M127.6,102.83l-1.8,0.57v10.01l-5.89,1.85V89.7l8.73-2.74c4.92-1.54,8.8-1.1,8.8,4.99
		c0,3.39-1.52,6.16-3.98,8.11l4.26,9.6l-6.3,1.98L127.6,102.83z M128.29,100.36c2.18-0.69,3.19-2.18,3.19-6.64
		c0-4.61-1-5.29-3.22-4.6l-2.46,0.77v11.25L128.29,100.36z"/>
</g>
<g>
	<path class="st0" d="M101.03,134.08l-3.81,17.47l-4.78,1.5l-5.13-23.94l6.13-1.92l3.43,16.2l4.09-18.56l3.67-1.15l4.16,16.18
		l3.5-18.58l2.25-0.71l-5.09,27.15l-4.54,1.42L101.03,134.08z"/>
	<path class="st0" d="M129.39,129.36l-6.23,1.96v12.08l-6.06,1.9v-25.55l6.06-1.9v11.42l6.23-1.96v-11.42l6.03-1.89v25.55
		l-6.03,1.89V129.36z"/>
	<path class="st0" d="M139.36,112.76l14.75-4.63v2.04l-8.69,2.73v9.38l7.62-2.39v2.04l-7.62,2.39v10.01l8.76-2.75v2.08l-14.82,4.66
		V112.76z"/>
	<path class="st0" d="M157.26,107.14l14.75-4.63v2.04l-8.69,2.73v9.38l7.62-2.39v2.04l-7.62,2.39v10.01l8.76-2.75v2.08l-14.82,4.66
		V107.14z"/>
	<path class="st0" d="M175.16,101.52l6.06-1.9v23.48l7.93-2.49v2.08l-13.99,4.39V101.52z"/>
	<path class="st0" d="M190.78,121.82v-1.9c1.87-0.45,3.71-0.89,5.37-1.41c3.29-1.03,4.68-2.4,4.68-4.69c0-1.07-0.31-1.74-1.04-2.3
		c-0.97-0.8-2.29-1.29-3.57-1.89c-1.7-0.75-3.01-1.3-3.95-2.36c-0.8-0.89-1.35-2.03-1.35-3.94c0-4.88,3.46-8.05,8.9-9.75
		c1.73-0.54,3.74-1,5.44-1.19v1.9c-1.49,0.29-2.98,0.66-4.3,1.07c-2.91,0.91-4.43,2.22-4.43,4.4c0,1.07,0.35,1.76,1.04,2.34
		c0.97,0.84,2.29,1.36,3.64,1.97c1.66,0.76,2.98,1.35,3.91,2.34c0.87,0.87,1.45,2,1.45,3.94c0,4.78-3.91,8.29-9.07,9.91
		C195.25,120.97,192.86,121.51,190.78,121.82z"/>
</g>
<g>
	<g>
		<g>
			<path class="st1" d="M160.57,77.27"/>
		</g>
	</g>
	<g>
		<g>
			<path class="st2" d="M144.81,105.31c-0.21,0-0.42-0.07-0.59-0.19c-0.26-0.19-0.41-0.49-0.41-0.81V76.16L90.37,93.32
				c-0.3,0.1-0.63,0.04-0.89-0.14c-0.26-0.19-0.41-0.49-0.41-0.8l-0.16-27.02L10.54,89.68c-0.53,0.16-1.09-0.13-1.25-0.66
				c-0.16-0.53,0.13-1.09,0.66-1.25L89.6,63.05c0.3-0.09,0.63-0.04,0.89,0.15s0.41,0.48,0.41,0.8l0.16,27l53.45-17.17
				c0.3-0.1,0.64-0.04,0.89,0.14c0.26,0.19,0.41,0.49,0.41,0.81v28.16l61.41-19.49c0.53-0.17,1.09,0.12,1.26,0.65
				c0.17,0.53-0.12,1.09-0.65,1.26l-62.71,19.9C145.01,105.29,144.91,105.31,144.81,105.31z"/>
		</g>
	</g>
	<g>
		<g>
			<path class="st2" d="M32.09,81.9l-10.91,3c-1.32,0-2.4,1.93-2.4,0.6v-6.61c0-1.32,1.07-2.4,2.4-2.4h10.91
				c1.32,0,2.4,1.07,2.4,2.4v0.61C34.49,80.83,33.41,81.9,32.09,81.9z"/>
		</g>
		<g>
			<path class="st2" d="M18.98,86.47c-0.1,0-0.19-0.02-0.29-0.07c-0.4-0.2-0.4-0.71-0.4-0.9v-6.61c0-1.6,1.3-2.9,2.9-2.9h10.91
				c1.6,0,2.9,1.3,2.9,2.9v0.61c0,1.57-1.26,2.86-2.83,2.9l-10.98,3c-0.45,0-0.92,0.35-1.3,0.63
				C19.57,86.26,19.28,86.47,18.98,86.47z M21.18,77c-1.05,0-1.9,0.85-1.9,1.9v6.34c0,0,0,0,0.01-0.01
				c0.46-0.33,1.07-0.79,1.82-0.82l10.99-3c1.05,0,1.9-0.85,1.9-1.9v-0.61c0-1.04-0.85-1.9-1.9-1.9H21.18z"/>
		</g>
	</g>
	<g>
		<g>
			<path class="st2" d="M51.77,76.13l-18.2,5c-0.47,0-0.85-0.38-0.85-0.85V68.73c0-0.47,0.38-0.85,0.85-0.85h18.2
				c0.47,0,0.85,0.38,0.85,0.85v6.55C52.63,75.75,52.24,76.13,51.77,76.13z"/>
		</g>
		<g>
			<path class="st2" d="M33.64,81.63h-0.07c-0.75,0-1.35-0.61-1.35-1.35V68.73c0-0.75,0.61-1.35,1.35-1.35h18.2
				c0.75,0,1.35,0.61,1.35,1.35v6.55c0,0.72-0.57,1.31-1.28,1.35L33.64,81.63z M33.57,68.37c-0.2,0-0.35,0.16-0.35,0.35v11.55
				c0,0.18,0.13,0.32,0.3,0.35l18.25-5c0.2,0,0.35-0.16,0.35-0.35v-6.55c0-0.2-0.16-0.35-0.35-0.35H33.57z"/>
		</g>
	</g>
	<g>
		<g>
			<path class="st2" d="M49.43,68.65H37.46c-0.54,0-0.99-0.44-0.99-0.99v-2.67c0-0.54,0.44-0.99,0.99-0.99h11.96
				c0.54,0,0.99,0.44,0.99,0.99v2.67C50.41,68.21,49.97,68.65,49.43,68.65z"/>
		</g>
		<g>
			<path class="st2" d="M49.43,69.15H37.46c-0.82,0-1.49-0.67-1.49-1.49v-2.67c0-0.82,0.67-1.49,1.49-1.49h11.96
				c0.82,0,1.49,0.67,1.49,1.49v2.67C50.91,68.48,50.25,69.15,49.43,69.15z M37.46,64.5c-0.27,0-0.49,0.22-0.49,0.49v2.67
				c0,0.27,0.22,0.49,0.49,0.49h11.96c0.27,0,0.49-0.22,0.49-0.49v-2.67c0-0.27-0.22-0.49-0.49-0.49H37.46z"/>
		</g>
	</g>
	<g>
		<g>
			<polygon class="st2" points="61.46,72.51 51.29,74.51 51.29,70.3 61.46,70.3 			"/>
		</g>
		<g>
			<path class="st2" d="M50.79,75.12V69.8h11.18v3.11L50.79,75.12z M51.79,70.8v3.1l9.18-1.8V70.8H51.79z M61.46,72.51L61.46,72.51
				L61.46,72.51z"/>
		</g>
	</g>
	<g>
		<g>
			<path class="st2" d="M80.38,67.39l-17.26,5c-0.54,0-0.98-0.44-0.98-0.98V59.12c0-0.54,0.44-0.98,0.98-0.98h17.26
				c0.54,0,0.98,0.44,0.98,0.98v7.29C81.36,66.95,80.92,67.39,80.38,67.39z"/>
		</g>
		<g>
			<path class="st2" d="M63.19,72.89h-0.07c-0.82,0-1.48-0.67-1.48-1.48V59.12c0-0.82,0.67-1.48,1.48-1.48h17.26
				c0.82,0,1.48,0.67,1.48,1.48v7.29c0,0.79-0.62,1.44-1.41,1.48L63.19,72.89z M63.12,58.64c-0.27,0-0.48,0.22-0.48,0.48v12.29
				c0,0.25,0.19,0.45,0.43,0.48l17.32-5c0.27,0,0.48-0.22,0.48-0.48v-7.29c0-0.27-0.22-0.48-0.48-0.48H63.12z"/>
		</g>
	</g>
	<g>
		<g>
			<path class="st2" d="M79.46,57.92H68.48c-0.08,0-0.15-0.07-0.15-0.15v-5.46c0-0.08,0.07-0.15,0.15-0.15h10.99
				c0.08,0,0.15,0.07,0.15,0.15v5.46C79.61,57.85,79.55,57.92,79.46,57.92z"/>
		</g>
		<g>
			<path class="st2" d="M79.46,58.42H68.48c-0.36,0-0.65-0.29-0.65-0.65v-5.46c0-0.36,0.29-0.65,0.65-0.65h10.99
				c0.36,0,0.65,0.29,0.65,0.65v5.46C80.11,58.13,79.82,58.42,79.46,58.42z M68.83,57.42h10.28v-4.75H68.83V57.42z"/>
		</g>
	</g>
	<g>
		<g>
			<path class="st2" d="M76.96,53.39c-0.55,0-1-0.45-1-1V47.3c0-0.55,0.45-1,1-1s1,0.45,1,1v5.09
				C77.96,52.94,77.51,53.39,76.96,53.39z"/>
		</g>
	</g>
	<g>
		<g>
			<rect x="57.27" y="64.77" class="st2" width="6.64" height="5.75"/>
		</g>
		<g>
			<path class="st2" d="M64.41,71.03h-7.64v-6.75h7.64V71.03z M57.77,70.03h5.64v-4.75h-5.64V70.03z"/>
		</g>
	</g>
	<g>
		<g>
			<path class="st2" d="M101.09,87.35l-9.35,3.49c-0.63,0.23-1.29-0.23-1.29-0.9V52.46c0-0.53,0.43-0.96,0.96-0.96h9.35
				c0.53,0,0.96,0.43,0.96,0.96v33.99C101.71,86.85,101.46,87.21,101.09,87.35z"/>
		</g>
		<g>
			<path class="st2" d="M91.41,91.4c-0.29,0-0.58-0.09-0.83-0.26c-0.39-0.27-0.63-0.72-0.63-1.2V52.46c0-0.8,0.65-1.46,1.46-1.46
				h9.35c0.8,0,1.46,0.65,1.46,1.46v33.99c0,0.61-0.38,1.15-0.95,1.37l-9.35,3.49C91.75,91.37,91.58,91.4,91.41,91.4z M91.41,52
				c-0.25,0-0.46,0.21-0.46,0.46v37.48c0,0.15,0.07,0.29,0.2,0.38c0.13,0.09,0.28,0.11,0.42,0.05l9.35-3.49
				c0.18-0.07,0.3-0.24,0.3-0.43V52.46c0-0.25-0.21-0.46-0.46-0.46H91.41z"/>
		</g>
	</g>
	<g>
		<g>
			<rect x="81.6" y="60.13" class="st2" width="6.41" height="4.87"/>
		</g>
		<g>
			<path class="st2" d="M88.52,65.5H81.1v-5.87h7.41V65.5z M82.1,64.5h5.41v-3.87H82.1V64.5z"/>
		</g>
	</g>
	<g>
		<g>
			<path class="st2" d="M92.86,64.55h-5.92c-0.38,0-0.69-0.31-0.69-0.69v-7.47c0-0.38,0.31-0.69,0.69-0.69h5.92
				c0.38,0,0.69,0.31,0.69,0.69v7.47C93.55,64.25,93.24,64.55,92.86,64.55z"/>
		</g>
		<g>
			<path class="st2" d="M92.86,65.05h-5.92c-0.65,0-1.19-0.53-1.19-1.19v-7.47c0-0.66,0.53-1.19,1.19-1.19h5.92
				c0.65,0,1.19,0.53,1.19,1.19v7.47C94.05,64.52,93.51,65.05,92.86,65.05z M86.94,56.21c-0.1,0-0.19,0.08-0.19,0.19v7.47
				c0,0.1,0.08,0.19,0.19,0.19h5.92c0.1,0,0.19-0.08,0.19-0.19v-7.47c0-0.1-0.08-0.19-0.19-0.19H86.94z"/>
		</g>
	</g>
	<g>
		<g>
			<polygon class="st2" points="111.45,84.46 102.17,88.66 102.17,75.06 111.45,75.06 			"/>
		</g>
		<g>
			<path class="st2" d="M101.67,89.44V74.56h10.27v10.22L101.67,89.44z M102.67,75.56v12.33l8.27-3.75v-8.58H102.67z M111.45,84.46
				L111.45,84.46L111.45,84.46z"/>
		</g>
	</g>
	<g>
		<g>
			<path class="st2" d="M125.6,80.22l-14.44,3.97c-0.49,0.13-0.97-0.23-0.97-0.74V58.47c0-0.43,0.34-0.77,0.77-0.77h14.44
				c0.43,0,0.77,0.34,0.77,0.77v21.01C126.17,79.83,125.94,80.13,125.6,80.22z"/>
		</g>
		<g>
			<path class="st2" d="M110.95,84.72c-0.27,0-0.54-0.09-0.77-0.26c-0.32-0.24-0.5-0.61-0.5-1.01V58.47c0-0.7,0.57-1.27,1.27-1.27
				h14.44c0.7,0,1.27,0.57,1.27,1.27v21.01c0,0.57-0.38,1.07-0.93,1.22l-14.44,3.97C111.18,84.71,111.07,84.72,110.95,84.72z
				 M110.96,58.2c-0.15,0-0.27,0.12-0.27,0.27v24.98c0,0.12,0.07,0.18,0.11,0.21c0.04,0.03,0.12,0.08,0.24,0.04l14.44-3.97
				c0.12-0.03,0.2-0.14,0.2-0.26V58.47c0-0.15-0.12-0.27-0.27-0.27H110.96z"/>
		</g>
	</g>
	<g>
		<g>
			<path class="st2" d="M123,62.34h-9.65c-0.83,0-1.5-0.67-1.5-1.5v-8.93c0-0.4,0.16-0.78,0.44-1.07l4.94-4.92
				c0.57-0.56,1.48-0.59,2.07-0.05l4.71,4.96c0.31,0.29,0.49,0.69,0.49,1.11v8.89C124.51,61.67,123.83,62.34,123,62.34z"/>
		</g>
		<g>
			<path class="st2" d="M123,62.84h-9.65c-1.1,0-2-0.9-2-2v-8.93c0-0.53,0.22-1.05,0.59-1.42l4.94-4.92
				c0.76-0.75,1.97-0.78,2.76-0.06l4.74,4.98c0.39,0.35,0.63,0.89,0.63,1.46v8.89C125.01,61.94,124.11,62.84,123,62.84z
				 M118.3,45.98c-0.26,0-0.52,0.1-0.72,0.3l-4.94,4.92c-0.19,0.19-0.3,0.45-0.3,0.71v8.93c0,0.55,0.45,1,1,1H123c0.55,0,1-0.45,1-1
				v-8.89c0-0.28-0.12-0.55-0.33-0.74l-4.74-4.99C118.76,46.06,118.54,45.98,118.3,45.98z"/>
		</g>
	</g>
	<g>
		<g>
			<path class="st2" d="M111.09,84.46h-4.99c-0.45,0-0.82-0.37-0.82-0.82V66.48c0-0.45,0.37-0.82,0.82-0.82h4.99
				c0.45,0,0.82,0.37,0.82,0.82v17.16C111.91,84.09,111.54,84.46,111.09,84.46z"/>
		</g>
		<g>
			<path class="st2" d="M111.09,84.96h-4.99c-0.73,0-1.32-0.59-1.32-1.32V66.48c0-0.73,0.59-1.32,1.32-1.32h4.99
				c0.73,0,1.32,0.59,1.32,1.32v17.16C112.41,84.37,111.81,84.96,111.09,84.96z M106.09,66.16c-0.18,0-0.32,0.14-0.32,0.32v17.16
				c0,0.18,0.14,0.32,0.32,0.32h4.99c0.18,0,0.32-0.14,0.32-0.32V66.48c0-0.18-0.14-0.32-0.32-0.32H106.09z"/>
		</g>
	</g>
	<g>
		<g>
			<path class="st2" d="M118.21,53.72c-0.55,0-1-0.45-1-1V37.44c0-0.55,0.45-1,1-1s1,0.45,1,1v15.28
				C119.21,53.27,118.76,53.72,118.21,53.72z"/>
		</g>
	</g>
	<g>
		<g>
			<path class="st2" d="M148.65,103.04h-3.25c-0.29,0-0.53-0.24-0.53-0.53V32.8c0-0.09,0.02-0.18,0.07-0.26l1.67-3.02
				c0.21-0.37,0.74-0.37,0.94,0.01l1.58,3.01c0.04,0.08,0.06,0.16,0.06,0.25v69.72C149.18,102.8,148.94,103.04,148.65,103.04z"/>
		</g>
	</g>
	<g>
		<g>
			<path class="st2" d="M166.65,98.04h-3.25c-0.29,0-0.53-0.24-0.53-0.53V32.8c0-0.09,0.02-0.18,0.07-0.26l1.67-3.02
				c0.21-0.37,0.74-0.37,0.94,0.01l1.58,3.01c0.04,0.08,0.06,0.16,0.06,0.25v64.72C167.18,97.8,166.94,98.04,166.65,98.04z"/>
		</g>
	</g>
	<g>
		<g>
			<path class="st2" d="M131.4,78.73l-5.04,1.32c-0.82,0.22-1.63-0.4-1.63-1.25V63.09c0-0.72,0.58-1.3,1.3-1.3h5.04
				c0.72,0,1.3,0.58,1.3,1.3v14.39C132.37,78.07,131.97,78.58,131.4,78.73z"/>
		</g>
	</g>
	<g>
		<g>
			<path class="st2" d="M133.8,77.94h-2.53c-0.55,0-1-0.45-1-1V67.1c0-0.55,0.45-1,1-1h2.53c0.55,0,1,0.45,1,1v9.83
				C134.8,77.49,134.35,77.94,133.8,77.94z"/>
		</g>
	</g>
	<g>
		<g>
			<polygon class="st2" points="163.4,98.04 149.07,101.94 149.07,35.98 163.4,35.98 			"/>
		</g>
	</g>
	<g>
		<g>
			<path class="st2" d="M141.61,75.95l-5.54,2.32c-0.7,0-1.27-0.57-1.27-1.27V59.07c0-0.7,0.57-1.27,1.27-1.27h5.54
				c0.7,0,1.27,0.57,1.27,1.27v15.61C142.87,75.38,142.31,75.95,141.61,75.95z"/>
		</g>
	</g>
	<g>
		<g>
			<rect x="141.77" y="67.76" class="st2" width="5.2" height="6.97"/>
		</g>
	</g>
	<g>
		<g>
			<path class="st2" d="M179.86,93.86h-3.41c-0.71,0-1.28,0.87-1.28,0.17V61.96c0-0.71,0.57-1.28,1.28-1.28h3.41
				c0.71,0,1.28,0.57,1.28,1.28v30.62C181.14,93.29,180.57,93.86,179.86,93.86z"/>
		</g>
	</g>
	<g>
		<g>
			<path class="st2" d="M190.55,89.16l-3.41,1.14c-0.83,0.28-1.69,1.66-1.69,0.78V61.96c0-0.71,0.57-1.28,1.28-1.28h3.41
				c0.71,0,1.28,0.57,1.28,1.28v25.98C191.43,88.49,191.08,88.98,190.55,89.16z"/>
		</g>
	</g>
	<g>
		<g>
			<path class="st2" d="M180.98,74.45c0,0,0.17-4.31,2.32-4.31s2.16,4.65,2.16,4.65v-9.12h-4.81v8.46"/>
		</g>
	</g>
	<g>
		<g>
			<path class="st2" d="M205.68,85.75c-0.09,0-0.19-0.01-0.29-0.04c-1.05-0.31-23.33-7.09-27.8-19.25
				c-2.13,6.16-7.29,17.13-17.03,17.13v-2c11.66,0,16.23-19.43,16.28-19.63c0.11-0.5,0.58-0.83,1.09-0.77
				c0.51,0.06,0.89,0.48,0.89,0.99c0,8.83,11.72,15.38,19.75,18.85c-8.5-7.78-10.83-18.5-10.95-19.05l1.96-0.41
				c0.03,0.16,3.41,15.62,16.55,22.29c0.46,0.23,0.67,0.78,0.48,1.26C206.46,85.51,206.08,85.75,205.68,85.75z"/>
		</g>
	</g>
	<g>
		<g>
			<rect x="164.56" y="88.4" class="st2" width="22.59" height="3.37"/>
		</g>
	</g>
	<g>
		<g>
			<path class="st2" d="M169.85,97.02h-3.95c-0.74,0-1.34-0.6-1.34-1.34V72.15c0-0.74,0.6-1.34,1.34-1.34h3.95
				c0.74,0,1.34,0.6,1.34,1.34v23.53C171.19,96.42,170.59,97.02,169.85,97.02z"/>
		</g>
	</g>
</g>
<g>
	<g>
		<g>
			<path class="st2" d="M79.36,165.53v-28.67l-25.22,8.23c-0.53,0.18-1.09-0.12-1.26-0.64c-0.17-0.53,0.12-1.09,0.64-1.26
				l27.84-9.09v28.72l125.86-39.05c0.53-0.16,1.09,0.13,1.25,0.66c0.16,0.53-0.13,1.09-0.66,1.25L79.36,165.53z"/>
		</g>
	</g>
	<g>
		<g>
			<path class="st2" d="M50.19,142.01c-0.55,0-1-0.44-1-0.99l-0.13-23.44l-38.52,12.12c-0.53,0.17-1.09-0.13-1.25-0.65
				c-0.17-0.53,0.13-1.09,0.65-1.25l39.81-12.52c0.3-0.09,0.63-0.04,0.89,0.15c0.26,0.19,0.41,0.48,0.41,0.8l0.14,24.8
				C51.2,141.56,50.75,142.01,50.19,142.01C50.2,142.01,50.19,142.01,50.19,142.01z"/>
		</g>
	</g>
	<g>
		<g>
			<g>
				<path class="st2" d="M80.5,164.27c-6.44,9.99-17.66,16.63-30.41,16.63c-19.93,0-36.14-16.21-36.14-36.14
					c0-6.82,1.9-13.21,5.2-18.66l8.93-3.35c-5.64,5.64-9.13,13.42-9.13,22.01c0,17.17,13.97,31.14,31.14,31.14
					c14.81,0,27.24-10.39,30.38-24.27"/>
			</g>
		</g>
	</g>
	<g>
		<g>
			<g>
				<path class="st2" d="M50.1,149.58c-2.69,0-4.87-2.18-4.87-4.87s2.18-4.87,4.87-4.87s4.87,2.18,4.87,4.87
					S52.78,149.58,50.1,149.58z M50.1,141.84c-1.58,0-2.87,1.29-2.87,2.87s1.29,2.87,2.87,2.87s2.87-1.29,2.87-2.87
					S51.68,141.84,50.1,141.84z"/>
			</g>
			<g>
				<path class="st2" d="M50.1,150.08c-2.96,0-5.37-2.41-5.37-5.37s2.41-5.37,5.37-5.37s5.37,2.41,5.37,5.37
					S53.06,150.08,50.1,150.08z M50.1,140.34c-2.41,0-4.37,1.96-4.37,4.37s1.96,4.37,4.37,4.37s4.37-1.96,4.37-4.37
					S52.51,140.34,50.1,140.34z M50.1,148.08c-1.86,0-3.37-1.51-3.37-3.37s1.51-3.37,3.37-3.37s3.37,1.51,3.37,3.37
					S51.96,148.08,50.1,148.08z M50.1,142.34c-1.31,0-2.37,1.06-2.37,2.37s1.06,2.37,2.37,2.37s2.37-1.06,2.37-2.37
					S51.4,142.34,50.1,142.34z"/>
			</g>
		</g>
	</g>
	<g>
		<g>
			<path class="st2" d="M55.21,171.87"/>
		</g>
	</g>
	<g>
		<g>
			<path class="st2" d="M50.12,173.32c-15.66,0-28.41-12.74-28.41-28.41s12.74-28.41,28.41-28.41v2
				c-14.56,0-26.41,11.85-26.41,26.41c0,14.56,11.85,26.41,26.41,26.41c14.56,0,26.41-11.85,26.41-26.41c0-2.72-0.41-5.41-1.23-7.98
				l1.91-0.6c0.88,2.77,1.32,5.66,1.32,8.59C78.53,160.58,65.79,173.32,50.12,173.32z"/>
		</g>
	</g>
	<g>
		<g>
			<path class="st2" d="M53.82,144.54c-0.24,0-0.45-0.17-0.49-0.41c-0.05-0.27,0.13-0.53,0.41-0.58l23.22-4.09
				c0.27-0.06,0.53,0.13,0.58,0.41c0.05,0.27-0.13,0.53-0.41,0.58l-23.22,4.09C53.87,144.54,53.84,144.54,53.82,144.54z"/>
		</g>
	</g>
	<g>
		<g>
			<path class="st2" d="M23.05,149.97c-0.24,0-0.45-0.17-0.49-0.41c-0.05-0.27,0.13-0.53,0.41-0.58l23.71-4.18
				c0.27-0.06,0.53,0.13,0.58,0.41c0.05,0.27-0.13,0.53-0.41,0.58l-23.71,4.18C23.11,149.97,23.08,149.97,23.05,149.97z"/>
		</g>
	</g>
	<g>
		<g>
			<path class="st2" d="M26.31,158.91c-0.17,0-0.34-0.09-0.43-0.25c-0.14-0.24-0.06-0.54,0.18-0.68l19.96-11.53
				c0.24-0.14,0.54-0.06,0.68,0.18c0.14,0.24,0.06,0.54-0.18,0.68l-19.96,11.53C26.48,158.89,26.39,158.91,26.31,158.91z"/>
		</g>
	</g>
	<g>
		<g>
			<path class="st2" d="M32.42,166.2c-0.11,0-0.23-0.04-0.32-0.12c-0.21-0.18-0.24-0.49-0.06-0.7l15.1-17.99
				c0.18-0.21,0.49-0.24,0.7-0.06c0.21,0.18,0.24,0.49,0.06,0.7l-15.1,17.99C32.71,166.14,32.57,166.2,32.42,166.2z"/>
		</g>
	</g>
	<g>
		<g>
			<path class="st2" d="M40.67,170.96c-0.06,0-0.11-0.01-0.17-0.03c-0.26-0.09-0.39-0.38-0.3-0.64l8.02-22.03
				c0.09-0.26,0.38-0.39,0.64-0.3c0.26,0.09,0.39,0.38,0.3,0.64l-8.02,22.03C41.06,170.84,40.87,170.96,40.67,170.96z"/>
		</g>
	</g>
	<g>
		<g>
			<path class="st2" d="M50.04,140.93c-0.28,0-0.5-0.22-0.5-0.5V117.3c0-0.28,0.22-0.5,0.5-0.5s0.5,0.22,0.5,0.5v23.13
				C50.54,140.7,50.32,140.93,50.04,140.93z"/>
		</g>
	</g>
	<g>
		<g>
			<path class="st2" d="M50.04,172.61c-0.28,0-0.5-0.22-0.5-0.5v-23.06c0-0.28,0.22-0.5,0.5-0.5s0.5,0.22,0.5,0.5v23.06
				C50.54,172.39,50.32,172.61,50.04,172.61z"/>
		</g>
	</g>
	<g>
		<g>
			<path class="st2" d="M48.64,141.37c-0.2,0-0.4-0.13-0.47-0.33l-7.98-21.91c-0.09-0.26,0.04-0.55,0.3-0.64
				c0.26-0.09,0.55,0.04,0.64,0.3l7.98,21.91c0.09,0.26-0.04,0.55-0.3,0.64C48.76,141.36,48.7,141.37,48.64,141.37z"/>
		</g>
	</g>
	<g>
		<g>
			<path class="st2" d="M59.41,170.96c-0.2,0-0.4-0.13-0.47-0.33l-8.11-22.29c-0.09-0.26,0.04-0.55,0.3-0.64
				c0.26-0.09,0.55,0.04,0.64,0.3l8.11,22.29c0.09,0.26-0.04,0.55-0.3,0.64C59.53,170.95,59.47,170.96,59.41,170.96z"/>
		</g>
	</g>
	<g>
		<g>
			<path class="st2" d="M47.49,142.16c-0.14,0-0.28-0.06-0.38-0.18l-15.06-17.95c-0.18-0.21-0.15-0.53,0.06-0.7
				c0.21-0.18,0.53-0.15,0.7,0.06l15.06,17.95c0.18,0.21,0.15,0.53-0.06,0.7C47.71,142.12,47.6,142.16,47.49,142.16z"/>
		</g>
	</g>
	<g>
		<g>
			<path class="st2" d="M67.66,166.2c-0.14,0-0.28-0.06-0.38-0.18l-15.13-18.03c-0.18-0.21-0.15-0.53,0.06-0.7
				c0.21-0.18,0.53-0.15,0.7,0.06l15.13,18.03c0.18,0.21,0.15,0.53-0.06,0.7C67.88,166.16,67.77,166.2,67.66,166.2z"/>
		</g>
	</g>
	<g>
		<g>
			<path class="st2" d="M46.33,143.06c-0.08,0-0.17-0.02-0.25-0.07l-20.02-11.56c-0.24-0.14-0.32-0.44-0.18-0.68
				c0.14-0.24,0.44-0.32,0.68-0.18l20.02,11.56c0.24,0.14,0.32,0.44,0.18,0.68C46.67,142.97,46.5,143.06,46.33,143.06z"/>
		</g>
	</g>
	<g>
		<g>
			<path class="st2" d="M73.78,158.91c-0.08,0-0.17-0.02-0.25-0.07l-20.45-11.81c-0.24-0.14-0.32-0.44-0.18-0.68
				s0.44-0.32,0.68-0.18l20.45,11.81c0.24,0.14,0.32,0.44,0.18,0.68C74.12,158.82,73.95,158.91,73.78,158.91z"/>
		</g>
	</g>
	<g>
		<g>
			<path class="st2" d="M45.75,144.45c-0.03,0-0.06,0-0.09-0.01l-22.7-4c-0.27-0.05-0.45-0.31-0.41-0.58
				c0.05-0.27,0.31-0.46,0.58-0.41l22.7,4c0.27,0.05,0.45,0.31,0.41,0.58C46.2,144.28,45.99,144.45,45.75,144.45z"/>
		</g>
	</g>
	<g>
		<g>
			<path class="st2" d="M77.03,149.97c-0.03,0-0.06,0-0.09-0.01L54.46,146c-0.27-0.05-0.45-0.31-0.41-0.58
				c0.05-0.27,0.31-0.46,0.58-0.41l22.48,3.96c0.27,0.05,0.45,0.31,0.41,0.58C77.48,149.8,77.27,149.97,77.03,149.97z"/>
		</g>
	</g>
	<g>
		<g>
			<g>
				<path class="st2" d="M80.05,165.4c-0.1,0-0.2-0.03-0.28-0.09c-0.23-0.16-0.29-0.47-0.13-0.7c0.19-0.27,0.37-0.54,0.54-0.82
					c0.15-0.23,0.46-0.3,0.69-0.15c0.23,0.15,0.3,0.46,0.15,0.69c-0.18,0.29-0.37,0.57-0.56,0.85
					C80.36,165.32,80.21,165.4,80.05,165.4z"/>
			</g>
		</g>
		<g>
			<g>
				<path class="st2" d="M50.19,181.19l0-1c0.66,0,1.32-0.02,1.98-0.05c0.27-0.03,0.51,0.2,0.53,0.47c0.02,0.28-0.2,0.51-0.47,0.53
					C51.55,181.17,50.88,181.19,50.19,181.19z M48.69,181.16c-0.01,0-0.01,0-0.02,0c-0.68-0.03-1.36-0.07-2.03-0.14
					c-0.27-0.03-0.48-0.27-0.45-0.55c0.03-0.27,0.27-0.47,0.55-0.45c0.65,0.06,1.31,0.11,1.98,0.14c0.28,0.01,0.49,0.24,0.48,0.52
					C49.18,180.95,48.95,181.16,48.69,181.16z M53.7,181.02c-0.25,0-0.47-0.19-0.5-0.45c-0.03-0.27,0.17-0.52,0.45-0.55
					c0.66-0.06,1.32-0.15,1.97-0.24c0.28-0.04,0.53,0.15,0.57,0.42c0.04,0.27-0.15,0.53-0.42,0.57c-0.67,0.1-1.34,0.19-2.02,0.25
					C53.73,181.02,53.72,181.02,53.7,181.02z M45.19,180.84c-0.02,0-0.05,0-0.07,0c-0.68-0.09-1.34-0.21-2.01-0.34
					c-0.27-0.05-0.45-0.32-0.4-0.59c0.05-0.27,0.31-0.45,0.59-0.39c0.65,0.13,1.3,0.24,1.95,0.33c0.27,0.04,0.46,0.29,0.43,0.56
					C45.65,180.66,45.43,180.84,45.19,180.84z M57.18,180.51c-0.23,0-0.44-0.17-0.49-0.4c-0.05-0.27,0.12-0.53,0.4-0.59
					c0.65-0.13,1.29-0.27,1.93-0.44c0.27-0.07,0.54,0.09,0.61,0.36s-0.09,0.54-0.36,0.61c-0.65,0.17-1.32,0.32-1.99,0.45
					C57.24,180.51,57.21,180.51,57.18,180.51z M41.74,180.19c-0.04,0-0.08,0-0.12-0.01c-0.66-0.16-1.32-0.34-1.97-0.53
					c-0.26-0.08-0.41-0.36-0.33-0.62c0.08-0.26,0.36-0.42,0.62-0.33c0.63,0.19,1.27,0.36,1.91,0.52c0.27,0.06,0.43,0.33,0.37,0.6
					C42.17,180.04,41.96,180.19,41.74,180.19z M60.58,179.67c-0.22,0-0.41-0.14-0.48-0.36c-0.08-0.26,0.07-0.54,0.33-0.62
					c0.63-0.19,1.26-0.4,1.88-0.62c0.26-0.09,0.55,0.04,0.64,0.3c0.09,0.26-0.04,0.55-0.3,0.64c-0.64,0.23-1.28,0.45-1.93,0.64
					C60.68,179.66,60.63,179.67,60.58,179.67z M38.36,179.2c-0.05,0-0.11-0.01-0.16-0.03c-0.64-0.22-1.28-0.47-1.91-0.72
					c-0.26-0.11-0.38-0.4-0.27-0.65s0.4-0.38,0.65-0.27c0.61,0.25,1.23,0.49,1.86,0.7c0.26,0.09,0.4,0.38,0.31,0.64
					C38.76,179.07,38.57,179.2,38.36,179.2z M63.89,178.49c-0.2,0-0.38-0.12-0.46-0.31c-0.1-0.26,0.02-0.55,0.27-0.65
					c0.61-0.25,1.22-0.52,1.81-0.8c0.25-0.12,0.55-0.01,0.67,0.24c0.12,0.25,0.01,0.55-0.24,0.67c-0.61,0.29-1.23,0.57-1.86,0.83
					C64.02,178.48,63.96,178.49,63.89,178.49z M35.1,177.89c-0.07,0-0.14-0.01-0.21-0.05c-0.62-0.29-1.23-0.59-1.83-0.91
					c-0.24-0.13-0.34-0.43-0.21-0.68s0.43-0.34,0.68-0.21c0.58,0.31,1.17,0.6,1.78,0.88c0.25,0.12,0.36,0.41,0.24,0.66
					C35.47,177.78,35.29,177.89,35.1,177.89z M67.07,177c-0.18,0-0.35-0.1-0.44-0.27c-0.13-0.24-0.04-0.55,0.21-0.68
					c0.58-0.31,1.16-0.64,1.72-0.98c0.23-0.14,0.54-0.07,0.69,0.17s0.07,0.54-0.17,0.69c-0.58,0.35-1.17,0.69-1.77,1
					C67.23,176.98,67.15,177,67.07,177z M31.98,176.26c-0.09,0-0.17-0.02-0.25-0.07c-0.59-0.34-1.16-0.7-1.73-1.08
					c-0.23-0.15-0.29-0.46-0.14-0.69c0.15-0.23,0.46-0.29,0.69-0.14c0.55,0.37,1.11,0.71,1.68,1.05c0.24,0.14,0.32,0.45,0.18,0.68
					C32.32,176.17,32.15,176.26,31.98,176.26z M70.09,175.2c-0.16,0-0.32-0.08-0.42-0.22c-0.15-0.23-0.09-0.54,0.14-0.69
					c0.55-0.37,1.09-0.74,1.62-1.14c0.22-0.17,0.53-0.12,0.7,0.1c0.17,0.22,0.12,0.54-0.1,0.7c-0.54,0.4-1.1,0.79-1.67,1.17
					C70.29,175.18,70.19,175.2,70.09,175.2z M29.03,174.33c-0.1,0-0.2-0.03-0.29-0.09c-0.55-0.4-1.09-0.81-1.62-1.24
					c-0.21-0.17-0.25-0.49-0.07-0.7c0.17-0.21,0.49-0.25,0.7-0.07c0.51,0.42,1.04,0.82,1.57,1.21c0.22,0.16,0.27,0.48,0.11,0.7
					C29.34,174.26,29.19,174.33,29.03,174.33z M72.93,173.12c-0.15,0-0.29-0.06-0.39-0.19c-0.17-0.21-0.14-0.53,0.07-0.7
					c0.51-0.42,1.01-0.85,1.5-1.29c0.2-0.19,0.52-0.17,0.71,0.03c0.19,0.21,0.17,0.52-0.03,0.71c-0.5,0.46-1.02,0.9-1.55,1.33
					C73.15,173.09,73.04,173.12,72.93,173.12z M26.29,172.14c-0.12,0-0.24-0.04-0.33-0.12c-0.51-0.45-1.01-0.91-1.49-1.39
					c-0.2-0.19-0.2-0.51,0-0.71c0.19-0.2,0.51-0.2,0.71-0.01c0.47,0.46,0.95,0.91,1.45,1.35c0.21,0.18,0.23,0.5,0.04,0.71
					C26.57,172.08,26.43,172.14,26.29,172.14z M75.55,170.78c-0.13,0-0.26-0.05-0.36-0.15c-0.19-0.2-0.19-0.51,0.01-0.71
					c0.47-0.46,0.93-0.94,1.37-1.43c0.19-0.21,0.5-0.22,0.71-0.03c0.2,0.19,0.22,0.5,0.03,0.71c-0.46,0.5-0.93,0.99-1.41,1.47
					C75.8,170.74,75.67,170.78,75.55,170.78z M23.77,169.69c-0.13,0-0.27-0.05-0.37-0.16c-0.46-0.5-0.91-1-1.35-1.53
					c-0.18-0.21-0.15-0.53,0.06-0.7c0.21-0.18,0.53-0.15,0.7,0.06c0.42,0.51,0.86,1,1.31,1.48c0.19,0.2,0.18,0.52-0.02,0.71
					C24.02,169.64,23.9,169.69,23.77,169.69z M77.93,168.2c-0.11,0-0.23-0.04-0.32-0.12c-0.21-0.18-0.24-0.49-0.06-0.7
					c0.42-0.51,0.83-1.02,1.23-1.55c0.16-0.22,0.48-0.27,0.7-0.1c0.22,0.17,0.27,0.48,0.1,0.7c-0.41,0.54-0.83,1.08-1.26,1.6
					C78.21,168.14,78.07,168.2,77.93,168.2z M21.51,167.01c-0.15,0-0.3-0.07-0.4-0.2c-0.41-0.54-0.81-1.09-1.19-1.65
					c-0.16-0.23-0.1-0.54,0.13-0.7c0.23-0.15,0.54-0.1,0.69,0.13c0.37,0.54,0.76,1.08,1.16,1.6c0.17,0.22,0.13,0.53-0.09,0.7
					C21.72,166.97,21.61,167.01,21.51,167.01z M19.51,164.12c-0.17,0-0.33-0.08-0.42-0.24c-0.36-0.57-0.7-1.16-1.03-1.75
					c-0.13-0.24-0.04-0.55,0.2-0.68c0.24-0.13,0.55-0.04,0.68,0.2c0.32,0.58,0.65,1.15,1,1.71c0.15,0.23,0.07,0.54-0.16,0.69
					C19.69,164.1,19.6,164.12,19.51,164.12z M17.8,161.06c-0.18,0-0.36-0.1-0.45-0.28c-0.3-0.61-0.58-1.22-0.85-1.85
					c-0.11-0.25,0.01-0.55,0.26-0.66c0.25-0.11,0.55,0.01,0.66,0.26c0.26,0.61,0.54,1.21,0.83,1.79c0.12,0.25,0.02,0.55-0.23,0.67
					C17.95,161.04,17.87,161.06,17.8,161.06z M16.39,157.84c-0.2,0-0.39-0.12-0.47-0.32c-0.24-0.63-0.46-1.27-0.67-1.92
					c-0.08-0.26,0.06-0.54,0.33-0.63c0.26-0.08,0.55,0.06,0.63,0.33c0.2,0.63,0.42,1.25,0.65,1.87c0.1,0.26-0.03,0.55-0.29,0.65
					C16.51,157.83,16.45,157.84,16.39,157.84z M15.31,154.5c-0.22,0-0.42-0.15-0.48-0.37c-0.18-0.65-0.34-1.31-0.48-1.98
					c-0.06-0.27,0.12-0.54,0.39-0.59c0.27-0.05,0.54,0.12,0.59,0.39c0.14,0.65,0.29,1.29,0.46,1.92c0.07,0.27-0.08,0.54-0.35,0.61
					C15.39,154.5,15.35,154.5,15.31,154.5z M14.55,151.07c-0.24,0-0.45-0.17-0.49-0.42c-0.11-0.67-0.21-1.34-0.28-2.01
					c-0.03-0.27,0.17-0.52,0.44-0.55c0.28-0.02,0.52,0.17,0.55,0.44c0.07,0.66,0.17,1.31,0.27,1.96c0.05,0.27-0.14,0.53-0.41,0.58
					C14.61,151.07,14.58,151.07,14.55,151.07z M14.14,147.58c-0.26,0-0.48-0.2-0.5-0.46c-0.05-0.67-0.08-1.35-0.08-2.04
					c0-0.28,0.22-0.5,0.49-0.51c0.26-0.03,0.5,0.22,0.51,0.49c0.01,0.66,0.04,1.32,0.08,1.98c0.02,0.28-0.19,0.51-0.46,0.53
					C14.16,147.58,14.15,147.58,14.14,147.58z M14.07,144.07c0,0-0.01,0-0.01,0c-0.28-0.01-0.49-0.24-0.49-0.51
					c0.02-0.68,0.06-1.36,0.11-2.03c0.02-0.27,0.27-0.48,0.54-0.46c0.28,0.02,0.48,0.26,0.46,0.54c-0.05,0.65-0.09,1.31-0.11,1.98
					C14.56,143.86,14.34,144.07,14.07,144.07z M14.33,140.57c-0.02,0-0.04,0-0.06,0c-0.27-0.03-0.47-0.28-0.43-0.56
					c0.08-0.68,0.19-1.35,0.31-2.01c0.05-0.27,0.31-0.44,0.58-0.4c0.27,0.05,0.45,0.31,0.4,0.58c-0.12,0.65-0.22,1.3-0.3,1.96
					C14.79,140.38,14.58,140.57,14.33,140.57z M14.93,137.1c-0.04,0-0.07,0-0.11-0.01c-0.27-0.06-0.44-0.33-0.38-0.6
					c0.15-0.67,0.32-1.32,0.5-1.97c0.08-0.27,0.36-0.42,0.62-0.34c0.27,0.08,0.42,0.35,0.34,0.62c-0.18,0.63-0.34,1.27-0.49,1.92
					C15.37,136.95,15.16,137.1,14.93,137.1z M15.87,133.72c-0.05,0-0.1-0.01-0.16-0.03c-0.26-0.09-0.4-0.37-0.32-0.63
					c0.21-0.65,0.45-1.29,0.69-1.91c0.1-0.26,0.4-0.39,0.65-0.28c0.26,0.1,0.38,0.39,0.28,0.65c-0.24,0.61-0.47,1.23-0.67,1.86
					C16.28,133.58,16.08,133.72,15.87,133.72z M17.14,130.44c-0.07,0-0.14-0.01-0.2-0.04c-0.25-0.11-0.37-0.41-0.25-0.66
					c0.28-0.62,0.57-1.23,0.88-1.84c0.13-0.25,0.43-0.34,0.67-0.22c0.25,0.13,0.34,0.43,0.22,0.67c-0.3,0.59-0.59,1.18-0.85,1.79
					C17.51,130.33,17.33,130.44,17.14,130.44z"/>
			</g>
		</g>
		<g>
			<g>
				<path class="st2" d="M18.74,127.25c-0.08,0-0.17-0.02-0.25-0.07c-0.24-0.14-0.32-0.44-0.19-0.68c0.17-0.29,0.34-0.58,0.51-0.87
					c0.14-0.24,0.45-0.31,0.69-0.17c0.24,0.14,0.31,0.45,0.17,0.69c-0.17,0.28-0.34,0.56-0.5,0.85
					C19.09,127.16,18.92,127.25,18.74,127.25z"/>
			</g>
		</g>
	</g>
</g>
</svg>
