<?xml version="1.0" encoding="utf-8"?>
<!-- Generator: Adobe Illustrator 25.2.1, SVG Export Plug-In . SVG Version: 6.00 Build 0)  -->
<svg version="1.1" id="Layer_1" xmlns="http://www.w3.org/2000/svg" xmlns:xlink="http://www.w3.org/1999/xlink" x="0px" y="0px"
	 viewBox="0 0 216 216" style="enable-background:new 0 0 216 216;" xml:space="preserve">
<style type="text/css">
	.st0{fill:#FFFFFF;}
	.st1{fill:#FFFFFF;stroke:#000000;stroke-width:2;stroke-miterlimit:10;}
</style>
<g>
	<path class="st0" d="M16,119.2v-1.9c1.9-0.4,3.7-0.9,5.4-1.4c3.3-1,4.7-2.4,4.7-4.7c0-1.1-0.3-1.7-1-2.3c-1-0.8-2.3-1.3-3.6-1.9
		c-1.7-0.8-3-1.3-4-2.4c-0.8-0.9-1.4-2-1.4-3.9c0-4.9,3.5-8.1,8.9-9.8c1.7-0.5,3.7-1,5.4-1.2v1.9c-1.5,0.3-3,0.7-4.3,1.1
		c-2.9,0.9-4.4,2.2-4.4,4.4c0,1.1,0.4,1.8,1,2.3c1,0.8,2.3,1.4,3.6,2c1.7,0.8,3,1.3,3.9,2.3c0.9,0.9,1.5,2,1.5,3.9
		c0,4.8-3.9,8.3-9.1,9.9C20.5,118.4,18.1,118.9,16,119.2z"/>
	<path class="st0" d="M34.8,88.1l9.3-2.9c4.8-1.5,8.1-0.4,8.1,5.5c0,5.8-2.9,9.5-8,11.1l-3.4,1.1v8.9l-6.1,1.9
		C34.8,113.7,34.8,88.1,34.8,88.1z M43,100.1c2.2-0.7,3.1-2.2,3.1-7.3c0-5-0.9-5.9-3.2-5.2l-2.1,0.7v12.5L43,100.1z"/>
	<path class="st0" d="M55.3,81.7l6-1.9v25.6l-6,1.9V81.7z"/>
	<path class="st0" d="M67.8,87v16.3l-2.4,0.8V78.5l3.7-1.2l10.6,12.5V74l2.4-0.8v25.5l-3.5,1.1L67.8,87z"/>
</g>
<g>
	<path class="st0" d="M62.6,124.2L56,109.8l6.7-2.1l4.9,11.3l5-14.5l2.5-0.8l-6.4,18.3v9.3l-6,1.9C62.6,133.2,62.6,124.2,62.6,124.2
		z"/>
	<path class="st0" d="M75.7,116.3c0-9,3.4-14.1,9.9-16.2c6.6-2.1,9.9,0.9,9.9,9.9c0,9-3.4,14.1-9.9,16.2
		C79.1,128.4,75.7,125.4,75.7,116.3z M89.3,112.1c0-9.4-0.8-10.8-3.7-9.9c-2.9,0.9-3.7,2.8-3.7,12.2c0,9.4,0.8,10.8,3.7,9.9
		C88.5,123.4,89.3,121.5,89.3,112.1z"/>
	<path class="st0" d="M98.8,113.7V96.3l6.2-1.9v17.6c0,4,1,5.2,4.3,4.2c3.4-1.1,4.4-2.9,4.4-6.9V91.7l2.5-0.8v17.4
		c0,6.3-2.8,9.3-8.5,11.1C101.9,121.2,98.8,120,98.8,113.7z"/>
	<path class="st0" d="M127.6,102.8l-1.8,0.6v10l-5.9,1.8V89.7l8.7-2.7c4.9-1.5,8.8-1.1,8.8,5c0,3.4-1.5,6.2-4,8.1l4.3,9.6l-6.3,2
		L127.6,102.8z M128.3,100.4c2.2-0.7,3.2-2.2,3.2-6.6c0-4.6-1-5.3-3.2-4.6l-2.5,0.8v11.2L128.3,100.4z"/>
</g>
<g>
	<path class="st0" d="M101,134.1l-3.8,17.5l-4.8,1.5l-5.1-23.9l6.1-1.9l3.4,16.2l4.1-18.6l3.7-1.2l4.2,16.2l3.5-18.6l2.2-0.7
		l-5.1,27.2l-4.5,1.4L101,134.1z"/>
	<path class="st0" d="M129.4,129.4l-6.2,2v12.1l-6.1,1.9v-25.6l6.1-1.9v11.4l6.2-2v-11.4l6-1.9v25.5l-6,1.9V129.4z"/>
	<path class="st0" d="M139.4,112.8l14.8-4.6v2l-8.7,2.7v9.4l7.6-2.4v2l-7.6,2.4v10l8.8-2.8v2.1l-14.8,4.7L139.4,112.8L139.4,112.8z"
		/>
	<path class="st0" d="M157.3,107.1l14.8-4.6v2l-8.7,2.7v9.4l7.6-2.4v2l-7.6,2.4v10l8.8-2.8v2.1l-14.8,4.7L157.3,107.1L157.3,107.1z"
		/>
	<path class="st0" d="M175.2,101.5l6.1-1.9v23.5l7.9-2.5v2.1l-14,4.4L175.2,101.5L175.2,101.5z"/>
	<path class="st0" d="M190.8,121.8v-1.9c1.9-0.4,3.7-0.9,5.4-1.4c3.3-1,4.7-2.4,4.7-4.7c0-1.1-0.3-1.7-1-2.3c-1-0.8-2.3-1.3-3.6-1.9
		c-1.7-0.8-3-1.3-3.9-2.4c-0.8-0.9-1.4-2-1.4-3.9c0-4.9,3.5-8.1,8.9-9.8c1.7-0.5,3.7-1,5.4-1.2v1.9c-1.5,0.3-3,0.7-4.3,1.1
		c-2.9,0.9-4.4,2.2-4.4,4.4c0,1.1,0.4,1.8,1,2.3c1,0.8,2.3,1.4,3.6,2c1.7,0.8,3,1.3,3.9,2.3c0.9,0.9,1.4,2,1.4,3.9
		c0,4.8-3.9,8.3-9.1,9.9C195.2,121,192.9,121.5,190.8,121.8z"/>
</g>
<g>
	<g>
		<g>
			<path class="st1" d="M160.6,77.3"/>
		</g>
	</g>
	<g>
		<g>
			<path class="st0" d="M144.8,105.3c-0.2,0-0.4-0.1-0.6-0.2c-0.3-0.2-0.4-0.5-0.4-0.8V76.2L90.4,93.3c-0.3,0.1-0.6,0-0.9-0.1
				c-0.3-0.2-0.4-0.5-0.4-0.8l-0.2-27L10.5,89.7C10,89.8,9.4,89.6,9.3,89c-0.2-0.5,0.1-1.1,0.7-1.2L89.6,63c0.3-0.1,0.6,0,0.9,0.2
				s0.4,0.5,0.4,0.8l0.2,27l53.5-17.2c0.3-0.1,0.6,0,0.9,0.1c0.3,0.2,0.4,0.5,0.4,0.8v28.2l61.4-19.5c0.5-0.2,1.1,0.1,1.3,0.7
				s-0.1,1.1-0.6,1.3l-62.7,19.9C145,105.3,144.9,105.3,144.8,105.3z"/>
		</g>
	</g>
	<g>
		<g>
			<path class="st0" d="M32.1,81.9l-10.9,3c-1.3,0-2.4,1.9-2.4,0.6v-6.6c0-1.3,1.1-2.4,2.4-2.4h10.9c1.3,0,2.4,1.1,2.4,2.4v0.6
				C34.5,80.8,33.4,81.9,32.1,81.9z"/>
		</g>
		<g>
			<path class="st0" d="M19,86.5c-0.1,0-0.2,0-0.3-0.1c-0.4-0.2-0.4-0.7-0.4-0.9v-6.6c0-1.6,1.3-2.9,2.9-2.9h10.9
				c1.6,0,2.9,1.3,2.9,2.9v0.6c0,1.6-1.3,2.9-2.8,2.9l-11,3c-0.5,0-0.9,0.3-1.3,0.6C19.6,86.3,19.3,86.5,19,86.5z M21.2,77
				c-1,0-1.9,0.8-1.9,1.9v6.3c0,0,0,0,0,0c0.5-0.3,1.1-0.8,1.8-0.8l11-3c1,0,1.9-0.8,1.9-1.9v-0.6c0-1-0.8-1.9-1.9-1.9H21.2z"/>
		</g>
	</g>
	<g>
		<g>
			<path class="st0" d="M51.8,76.1l-18.2,5c-0.5,0-0.8-0.4-0.8-0.8V68.7c0-0.5,0.4-0.8,0.8-0.8h18.2c0.5,0,0.8,0.4,0.8,0.8v6.6
				C52.6,75.8,52.2,76.1,51.8,76.1z"/>
		</g>
		<g>
			<path class="st0" d="M33.6,81.6L33.6,81.6c-0.8,0-1.4-0.6-1.4-1.3V68.7c0-0.8,0.6-1.3,1.3-1.3h18.2c0.8,0,1.3,0.6,1.3,1.3v6.6
				c0,0.7-0.6,1.3-1.3,1.3L33.6,81.6z M33.6,68.4c-0.2,0-0.3,0.2-0.3,0.3v11.6c0,0.2,0.1,0.3,0.3,0.3l18.2-5c0.2,0,0.3-0.2,0.3-0.3
				v-6.6c0-0.2-0.2-0.3-0.3-0.3H33.6z"/>
		</g>
	</g>
	<g>
		<g>
			<path class="st0" d="M49.4,68.7h-12c-0.5,0-1-0.4-1-1V65c0-0.5,0.4-1,1-1h12c0.5,0,1,0.4,1,1v2.7C50.4,68.2,50,68.7,49.4,68.7z"
				/>
		</g>
		<g>
			<path class="st0" d="M49.4,69.2h-12c-0.8,0-1.5-0.7-1.5-1.5V65c0-0.8,0.7-1.5,1.5-1.5h12c0.8,0,1.5,0.7,1.5,1.5v2.7
				C50.9,68.5,50.2,69.2,49.4,69.2z M37.5,64.5c-0.3,0-0.5,0.2-0.5,0.5v2.7c0,0.3,0.2,0.5,0.5,0.5h12c0.3,0,0.5-0.2,0.5-0.5V65
				c0-0.3-0.2-0.5-0.5-0.5H37.5z"/>
		</g>
	</g>
	<g>
		<g>
			<polygon class="st0" points="61.5,72.5 51.3,74.5 51.3,70.3 61.5,70.3 			"/>
		</g>
		<g>
			<path class="st0" d="M50.8,75.1v-5.3H62v3.1L50.8,75.1z M51.8,70.8v3.1l9.2-1.8v-1.3H51.8z M61.5,72.5L61.5,72.5L61.5,72.5z"/>
		</g>
	</g>
	<g>
		<g>
			<path class="st0" d="M80.4,67.4l-17.3,5c-0.5,0-1-0.4-1-1V59.1c0-0.5,0.4-1,1-1h17.3c0.5,0,1,0.4,1,1v7.3
				C81.4,66.9,80.9,67.4,80.4,67.4z"/>
		</g>
		<g>
			<path class="st0" d="M63.2,72.9L63.2,72.9c-0.9,0-1.5-0.7-1.5-1.5V59.1c0-0.8,0.7-1.5,1.5-1.5h17.3c0.8,0,1.5,0.7,1.5,1.5v7.3
				c0,0.8-0.6,1.4-1.4,1.5L63.2,72.9z M63.1,58.6c-0.3,0-0.5,0.2-0.5,0.5v12.3c0,0.2,0.2,0.4,0.4,0.5l17.3-5c0.3,0,0.5-0.2,0.5-0.5
				v-7.3c0-0.3-0.2-0.5-0.5-0.5C80.4,58.6,63.1,58.6,63.1,58.6z"/>
		</g>
	</g>
	<g>
		<g>
			<path class="st0" d="M79.5,57.9h-11c-0.1,0-0.2-0.1-0.2-0.2v-5.5c0-0.1,0.1-0.2,0.2-0.2h11c0.1,0,0.2,0.1,0.2,0.2v5.5
				C79.6,57.8,79.6,57.9,79.5,57.9z"/>
		</g>
		<g>
			<path class="st0" d="M79.5,58.4h-11c-0.4,0-0.7-0.3-0.7-0.7v-5.5c0-0.4,0.3-0.7,0.7-0.7h11c0.4,0,0.7,0.3,0.7,0.7v5.5
				C80.1,58.1,79.8,58.4,79.5,58.4z M68.8,57.4h10.3v-4.8H68.8V57.4z"/>
		</g>
	</g>
	<g>
		<g>
			<path class="st0" d="M77,53.4c-0.6,0-1-0.5-1-1v-5.1c0-0.5,0.4-1,1-1s1,0.5,1,1v5.1C78,52.9,77.5,53.4,77,53.4z"/>
		</g>
	</g>
	<g>
		<g>
			<rect x="57.3" y="64.8" class="st0" width="6.6" height="5.8"/>
		</g>
		<g>
			<path class="st0" d="M64.4,71h-7.6v-6.8h7.6V71z M57.8,70h5.6v-4.8h-5.6V70z"/>
		</g>
	</g>
	<g>
		<g>
			<path class="st0" d="M101.1,87.3l-9.3,3.5c-0.6,0.2-1.3-0.2-1.3-0.9V52.5c0-0.5,0.4-1,1-1h9.3c0.5,0,1,0.4,1,1v34
				C101.7,86.8,101.5,87.2,101.1,87.3z"/>
		</g>
		<g>
			<path class="st0" d="M91.4,91.4c-0.3,0-0.6-0.1-0.8-0.3c-0.4-0.3-0.6-0.7-0.6-1.2V52.5c0-0.8,0.7-1.5,1.5-1.5h9.3
				c0.8,0,1.5,0.7,1.5,1.5v34c0,0.6-0.4,1.2-0.9,1.4l-9.3,3.5C91.8,91.4,91.6,91.4,91.4,91.4z M91.4,52c-0.2,0-0.5,0.2-0.5,0.5v37.5
				c0,0.2,0.1,0.3,0.2,0.4s0.3,0.1,0.4,0.1l9.3-3.5c0.2-0.1,0.3-0.2,0.3-0.4v-34c0-0.2-0.2-0.5-0.5-0.5H91.4z"/>
		</g>
	</g>
	<g>
		<g>
			<rect x="81.6" y="60.1" class="st0" width="6.4" height="4.9"/>
		</g>
		<g>
			<path class="st0" d="M88.5,65.5h-7.4v-5.9h7.4L88.5,65.5L88.5,65.5z M82.1,64.5h5.4v-3.9h-5.4V64.5z"/>
		</g>
	</g>
	<g>
		<g>
			<path class="st0" d="M92.9,64.6h-5.9c-0.4,0-0.7-0.3-0.7-0.7v-7.5c0-0.4,0.3-0.7,0.7-0.7h5.9c0.4,0,0.7,0.3,0.7,0.7v7.5
				C93.6,64.2,93.2,64.6,92.9,64.6z"/>
		</g>
		<g>
			<path class="st0" d="M92.9,65.1h-5.9c-0.7,0-1.2-0.5-1.2-1.2v-7.5c0-0.7,0.5-1.2,1.2-1.2h5.9c0.7,0,1.2,0.5,1.2,1.2v7.5
				C94.1,64.5,93.5,65.1,92.9,65.1z M86.9,56.2c-0.1,0-0.2,0.1-0.2,0.2v7.5c0,0.1,0.1,0.2,0.2,0.2h5.9c0.1,0,0.2-0.1,0.2-0.2v-7.5
				c0-0.1-0.1-0.2-0.2-0.2H86.9z"/>
		</g>
	</g>
	<g>
		<g>
			<polygon class="st0" points="111.4,84.5 102.2,88.7 102.2,75.1 111.4,75.1 			"/>
		</g>
		<g>
			<path class="st0" d="M101.7,89.4V74.6h10.3v10.2L101.7,89.4z M102.7,75.6v12.3l8.3-3.8v-8.6H102.7z M111.4,84.5L111.4,84.5
				L111.4,84.5z"/>
		</g>
	</g>
	<g>
		<g>
			<path class="st0" d="M125.6,80.2l-14.4,4c-0.5,0.1-1-0.2-1-0.7v-25c0-0.4,0.3-0.8,0.8-0.8h14.4c0.4,0,0.8,0.3,0.8,0.8v21
				C126.2,79.8,125.9,80.1,125.6,80.2z"/>
		</g>
		<g>
			<path class="st0" d="M110.9,84.7c-0.3,0-0.5-0.1-0.8-0.3c-0.3-0.2-0.5-0.6-0.5-1v-25c0-0.7,0.6-1.3,1.3-1.3h14.4
				c0.7,0,1.3,0.6,1.3,1.3v21c0,0.6-0.4,1.1-0.9,1.2l-14.4,4C111.2,84.7,111.1,84.7,110.9,84.7z M111,58.2c-0.2,0-0.3,0.1-0.3,0.3
				v25c0,0.1,0.1,0.2,0.1,0.2s0.1,0.1,0.2,0l14.4-4c0.1,0,0.2-0.1,0.2-0.3v-21c0-0.2-0.1-0.3-0.3-0.3H111z"/>
		</g>
	</g>
	<g>
		<g>
			<path class="st0" d="M123,62.3h-9.7c-0.8,0-1.5-0.7-1.5-1.5v-8.9c0-0.4,0.2-0.8,0.4-1.1l4.9-4.9c0.6-0.6,1.5-0.6,2.1,0l4.7,5
				c0.3,0.3,0.5,0.7,0.5,1.1v8.9C124.5,61.7,123.8,62.3,123,62.3z"/>
		</g>
		<g>
			<path class="st0" d="M123,62.8h-9.7c-1.1,0-2-0.9-2-2v-8.9c0-0.5,0.2-1,0.6-1.4l4.9-4.9c0.8-0.8,2-0.8,2.8-0.1l4.7,5
				c0.4,0.3,0.6,0.9,0.6,1.5v8.9C125,61.9,124.1,62.8,123,62.8z M118.3,46c-0.3,0-0.5,0.1-0.7,0.3l-4.9,4.9
				c-0.2,0.2-0.3,0.5-0.3,0.7v8.9c0,0.5,0.4,1,1,1h9.7c0.6,0,1-0.5,1-1v-8.9c0-0.3-0.1-0.5-0.3-0.7l-4.7-5
				C118.8,46.1,118.5,46,118.3,46z"/>
		</g>
	</g>
	<g>
		<g>
			<path class="st0" d="M111.1,84.5h-5c-0.4,0-0.8-0.4-0.8-0.8V66.5c0-0.4,0.4-0.8,0.8-0.8h5c0.4,0,0.8,0.4,0.8,0.8v17.2
				C111.9,84.1,111.5,84.5,111.1,84.5z"/>
		</g>
		<g>
			<path class="st0" d="M111.1,85h-5c-0.7,0-1.3-0.6-1.3-1.3V66.5c0-0.7,0.6-1.3,1.3-1.3h5c0.7,0,1.3,0.6,1.3,1.3v17.2
				C112.4,84.4,111.8,85,111.1,85z M106.1,66.2c-0.2,0-0.3,0.1-0.3,0.3v17.2c0,0.2,0.1,0.3,0.3,0.3h5c0.2,0,0.3-0.1,0.3-0.3V66.5
				c0-0.2-0.1-0.3-0.3-0.3H106.1z"/>
		</g>
	</g>
	<g>
		<g>
			<path class="st0" d="M118.2,53.7c-0.6,0-1-0.5-1-1V37.4c0-0.5,0.4-1,1-1s1,0.5,1,1v15.3C119.2,53.3,118.8,53.7,118.2,53.7z"/>
		</g>
	</g>
	<g>
		<g>
			<path class="st0" d="M148.6,103h-3.2c-0.3,0-0.5-0.2-0.5-0.5V32.8c0-0.1,0-0.2,0.1-0.3l1.7-3c0.2-0.4,0.7-0.4,0.9,0l1.6,3
				c0,0.1,0.1,0.2,0.1,0.2v69.7C149.2,102.8,148.9,103,148.6,103z"/>
		</g>
	</g>
	<g>
		<g>
			<path class="st0" d="M166.6,98h-3.2c-0.3,0-0.5-0.2-0.5-0.5V32.8c0-0.1,0-0.2,0.1-0.3l1.7-3c0.2-0.4,0.7-0.4,0.9,0l1.6,3
				c0,0.1,0.1,0.2,0.1,0.2v64.7C167.2,97.8,166.9,98,166.6,98z"/>
		</g>
	</g>
	<g>
		<g>
			<path class="st0" d="M131.4,78.7l-5,1.3c-0.8,0.2-1.6-0.4-1.6-1.2V63.1c0-0.7,0.6-1.3,1.3-1.3h5c0.7,0,1.3,0.6,1.3,1.3v14.4
				C132.4,78.1,132,78.6,131.4,78.7z"/>
		</g>
	</g>
	<g>
		<g>
			<path class="st0" d="M133.8,77.9h-2.5c-0.6,0-1-0.4-1-1v-9.8c0-0.6,0.4-1,1-1h2.5c0.6,0,1,0.4,1,1v9.8
				C134.8,77.5,134.4,77.9,133.8,77.9z"/>
		</g>
	</g>
	<g>
		<g>
			<polygon class="st0" points="163.4,98 149.1,101.9 149.1,36 163.4,36 			"/>
		</g>
	</g>
	<g>
		<g>
			<path class="st0" d="M141.6,75.9l-5.5,2.3c-0.7,0-1.3-0.6-1.3-1.3V59.1c0-0.7,0.6-1.3,1.3-1.3h5.5c0.7,0,1.3,0.6,1.3,1.3v15.6
				C142.9,75.4,142.3,75.9,141.6,75.9z"/>
		</g>
	</g>
	<g>
		<g>
			<rect x="141.8" y="67.8" class="st0" width="5.2" height="7"/>
		</g>
	</g>
	<g>
		<g>
			<path class="st0" d="M179.9,93.9h-3.4c-0.7,0-1.3,0.9-1.3,0.2V62c0-0.7,0.6-1.3,1.3-1.3h3.4c0.7,0,1.3,0.6,1.3,1.3v30.6
				C181.1,93.3,180.6,93.9,179.9,93.9z"/>
		</g>
	</g>
	<g>
		<g>
			<path class="st0" d="M190.6,89.2l-3.4,1.1c-0.8,0.3-1.7,1.7-1.7,0.8V62c0-0.7,0.6-1.3,1.3-1.3h3.4c0.7,0,1.3,0.6,1.3,1.3v26
				C191.4,88.5,191.1,89,190.6,89.2z"/>
		</g>
	</g>
	<g>
		<g>
			<path class="st0" d="M181,74.4c0,0,0.2-4.3,2.3-4.3s2.2,4.7,2.2,4.7v-9.1h-4.8v8.5"/>
		</g>
	</g>
	<g>
		<g>
			<path class="st0" d="M205.7,85.8c-0.1,0-0.2,0-0.3,0c-1.1-0.3-23.3-7.1-27.8-19.2c-2.1,6.2-7.3,17.1-17,17.1v-2
				c11.7,0,16.2-19.4,16.3-19.6c0.1-0.5,0.6-0.8,1.1-0.8s0.9,0.5,0.9,1c0,8.8,11.7,15.4,19.8,18.8c-8.5-7.8-10.8-18.5-10.9-19l2-0.4
				c0,0.2,3.4,15.6,16.6,22.3c0.5,0.2,0.7,0.8,0.5,1.3C206.5,85.5,206.1,85.8,205.7,85.8z"/>
		</g>
	</g>
	<g>
		<g>
			<rect x="164.6" y="88.4" class="st0" width="22.6" height="3.4"/>
		</g>
	</g>
	<g>
		<g>
			<path class="st0" d="M169.9,97h-3.9c-0.7,0-1.3-0.6-1.3-1.3V72.2c0-0.7,0.6-1.3,1.3-1.3h3.9c0.7,0,1.3,0.6,1.3,1.3v23.5
				C171.2,96.4,170.6,97,169.9,97z"/>
		</g>
	</g>
</g>
<g>
	<g>
		<g>
			<path class="st0" d="M79.4,165.5v-28.7l-25.2,8.2c-0.5,0.2-1.1-0.1-1.3-0.6c-0.2-0.5,0.1-1.1,0.6-1.3l27.8-9.1v28.7l125.9-39.1
				c0.5-0.2,1.1,0.1,1.2,0.7c0.2,0.5-0.1,1.1-0.7,1.2L79.4,165.5z"/>
		</g>
	</g>
	<g>
		<g>
			<path class="st0" d="M50.2,142c-0.5,0-1-0.4-1-1l-0.1-23.4l-38.5,12.1c-0.5,0.2-1.1-0.1-1.2-0.6c-0.2-0.5,0.1-1.1,0.6-1.2
				l39.8-12.5c0.3-0.1,0.6,0,0.9,0.2s0.4,0.5,0.4,0.8l0.1,24.8C51.2,141.6,50.8,142,50.2,142C50.2,142,50.2,142,50.2,142z"/>
		</g>
	</g>
	<g>
		<g>
			<g>
				<path class="st0" d="M80.5,164.3c-6.4,10-17.7,16.6-30.4,16.6c-19.9,0-36.1-16.2-36.1-36.1c0-6.8,1.9-13.2,5.2-18.7l8.9-3.3
					c-5.6,5.6-9.1,13.4-9.1,22c0,17.2,14,31.1,31.1,31.1c14.8,0,27.2-10.4,30.4-24.3"/>
			</g>
		</g>
	</g>
	<g>
		<g>
			<g>
				<path class="st0" d="M50.1,149.6c-2.7,0-4.9-2.2-4.9-4.9s2.2-4.9,4.9-4.9s4.9,2.2,4.9,4.9S52.8,149.6,50.1,149.6z M50.1,141.8
					c-1.6,0-2.9,1.3-2.9,2.9s1.3,2.9,2.9,2.9s2.9-1.3,2.9-2.9S51.7,141.8,50.1,141.8z"/>
			</g>
			<g>
				<path class="st0" d="M50.1,150.1c-3,0-5.4-2.4-5.4-5.4s2.4-5.4,5.4-5.4s5.4,2.4,5.4,5.4S53.1,150.1,50.1,150.1z M50.1,140.3
					c-2.4,0-4.4,2-4.4,4.4s2,4.4,4.4,4.4s4.4-2,4.4-4.4S52.5,140.3,50.1,140.3z M50.1,148.1c-1.9,0-3.4-1.5-3.4-3.4s1.5-3.4,3.4-3.4
					s3.4,1.5,3.4,3.4S52,148.1,50.1,148.1z M50.1,142.3c-1.3,0-2.4,1.1-2.4,2.4s1.1,2.4,2.4,2.4s2.4-1.1,2.4-2.4
					S51.4,142.3,50.1,142.3z"/>
			</g>
		</g>
	</g>
	<g>
		<g>
			<path class="st0" d="M55.2,171.9"/>
		</g>
	</g>
	<g>
		<g>
			<path class="st0" d="M50.1,173.3c-15.7,0-28.4-12.7-28.4-28.4s12.7-28.4,28.4-28.4v2c-14.6,0-26.4,11.9-26.4,26.4
				s11.8,26.4,26.4,26.4s26.4-11.9,26.4-26.4c0-2.7-0.4-5.4-1.2-8l1.9-0.6c0.9,2.8,1.3,5.7,1.3,8.6
				C78.5,160.6,65.8,173.3,50.1,173.3z"/>
		</g>
	</g>
	<g>
		<g>
			<path class="st0" d="M53.8,144.5c-0.2,0-0.5-0.2-0.5-0.4c0-0.3,0.1-0.5,0.4-0.6l23.2-4.1c0.3-0.1,0.5,0.1,0.6,0.4
				c0.1,0.3-0.1,0.5-0.4,0.6L53.8,144.5C53.9,144.5,53.8,144.5,53.8,144.5z"/>
		</g>
	</g>
	<g>
		<g>
			<path class="st0" d="M23,150c-0.2,0-0.5-0.2-0.5-0.4c0-0.3,0.1-0.5,0.4-0.6l23.7-4.2c0.3-0.1,0.5,0.1,0.6,0.4
				c0,0.3-0.1,0.5-0.4,0.6L23,150C23.1,150,23.1,150,23,150z"/>
		</g>
	</g>
	<g>
		<g>
			<path class="st0" d="M26.3,158.9c-0.2,0-0.3-0.1-0.4-0.2c-0.1-0.2-0.1-0.5,0.2-0.7l20-11.5c0.2-0.1,0.5-0.1,0.7,0.2
				c0.1,0.2,0.1,0.5-0.2,0.7l-20,11.5C26.5,158.9,26.4,158.9,26.3,158.9z"/>
		</g>
	</g>
	<g>
		<g>
			<path class="st0" d="M32.4,166.2c-0.1,0-0.2,0-0.3-0.1c-0.2-0.2-0.2-0.5-0.1-0.7l15.1-18c0.2-0.2,0.5-0.2,0.7-0.1
				c0.2,0.2,0.2,0.5,0.1,0.7l-15.1,18C32.7,166.1,32.6,166.2,32.4,166.2z"/>
		</g>
	</g>
	<g>
		<g>
			<path class="st0" d="M40.7,171c-0.1,0-0.1,0-0.2,0c-0.3-0.1-0.4-0.4-0.3-0.6l8-22c0.1-0.3,0.4-0.4,0.6-0.3s0.4,0.4,0.3,0.6l-8,22
				C41.1,170.8,40.9,171,40.7,171z"/>
		</g>
	</g>
	<g>
		<g>
			<path class="st0" d="M50,140.9c-0.3,0-0.5-0.2-0.5-0.5v-23.1c0-0.3,0.2-0.5,0.5-0.5s0.5,0.2,0.5,0.5v23.1
				C50.5,140.7,50.3,140.9,50,140.9z"/>
		</g>
	</g>
	<g>
		<g>
			<path class="st0" d="M50,172.6c-0.3,0-0.5-0.2-0.5-0.5v-23.1c0-0.3,0.2-0.5,0.5-0.5s0.5,0.2,0.5,0.5v23.1
				C50.5,172.4,50.3,172.6,50,172.6z"/>
		</g>
	</g>
	<g>
		<g>
			<path class="st0" d="M48.6,141.4c-0.2,0-0.4-0.1-0.5-0.3l-8-21.9c-0.1-0.3,0-0.6,0.3-0.6s0.5,0,0.6,0.3l8,21.9
				c0.1,0.3,0,0.6-0.3,0.6C48.8,141.4,48.7,141.4,48.6,141.4z"/>
		</g>
	</g>
	<g>
		<g>
			<path class="st0" d="M59.4,171c-0.2,0-0.4-0.1-0.5-0.3l-8.1-22.3c-0.1-0.3,0-0.6,0.3-0.6s0.5,0,0.6,0.3l8.1,22.3
				c0.1,0.3,0,0.6-0.3,0.6C59.5,170.9,59.5,171,59.4,171z"/>
		</g>
	</g>
	<g>
		<g>
			<path class="st0" d="M47.5,142.2c-0.1,0-0.3-0.1-0.4-0.2L32,124c-0.2-0.2-0.1-0.5,0.1-0.7c0.2-0.2,0.5-0.2,0.7,0.1l15.1,17.9
				c0.2,0.2,0.2,0.5-0.1,0.7C47.7,142.1,47.6,142.2,47.5,142.2z"/>
		</g>
	</g>
	<g>
		<g>
			<path class="st0" d="M67.7,166.2c-0.1,0-0.3-0.1-0.4-0.2l-15.1-18c-0.2-0.2-0.2-0.5,0.1-0.7c0.2-0.2,0.5-0.1,0.7,0.1l15.1,18
				c0.2,0.2,0.2,0.5-0.1,0.7C67.9,166.2,67.8,166.2,67.7,166.2z"/>
		</g>
	</g>
	<g>
		<g>
			<path class="st0" d="M46.3,143.1c-0.1,0-0.2,0-0.2-0.1l-20-11.6c-0.2-0.1-0.3-0.4-0.2-0.7c0.1-0.2,0.4-0.3,0.7-0.2l20,11.6
				c0.2,0.1,0.3,0.4,0.2,0.7C46.7,143,46.5,143.1,46.3,143.1z"/>
		</g>
	</g>
	<g>
		<g>
			<path class="st0" d="M73.8,158.9c-0.1,0-0.2,0-0.2-0.1L53.1,147c-0.2-0.1-0.3-0.4-0.2-0.7s0.4-0.3,0.7-0.2L74,158
				c0.2,0.1,0.3,0.4,0.2,0.7C74.1,158.8,73.9,158.9,73.8,158.9z"/>
		</g>
	</g>
	<g>
		<g>
			<path class="st0" d="M45.8,144.4C45.7,144.4,45.7,144.4,45.8,144.4l-22.8-4c-0.3-0.1-0.5-0.3-0.4-0.6c0-0.3,0.3-0.5,0.6-0.4
				l22.7,4c0.3,0.1,0.5,0.3,0.4,0.6C46.2,144.3,46,144.4,45.8,144.4z"/>
		</g>
	</g>
	<g>
		<g>
			<path class="st0" d="M77,150C77,150,77,150,77,150l-22.6-4c-0.3-0.1-0.5-0.3-0.4-0.6c0-0.3,0.3-0.5,0.6-0.4l22.5,4
				c0.3,0.1,0.4,0.3,0.4,0.6C77.5,149.8,77.3,150,77,150z"/>
		</g>
	</g>
	<g>
		<g>
			<g>
				<path class="st0" d="M80.1,165.4c-0.1,0-0.2,0-0.3-0.1c-0.2-0.2-0.3-0.5-0.1-0.7c0.2-0.3,0.4-0.5,0.5-0.8
					c0.2-0.2,0.5-0.3,0.7-0.1c0.2,0.1,0.3,0.5,0.2,0.7c-0.2,0.3-0.4,0.6-0.6,0.9C80.4,165.3,80.2,165.4,80.1,165.4z"/>
			</g>
		</g>
		<g>
			<g>
				<path class="st0" d="M50.2,181.2v-1c0.7,0,1.3,0,2-0.1c0.3,0,0.5,0.2,0.5,0.5c0,0.3-0.2,0.5-0.5,0.5
					C51.5,181.2,50.9,181.2,50.2,181.2z M48.7,181.2C48.7,181.2,48.7,181.2,48.7,181.2c-0.7,0-1.4-0.1-2-0.1c-0.3,0-0.5-0.3-0.5-0.6
					c0-0.3,0.3-0.5,0.5-0.4c0.7,0.1,1.3,0.1,2,0.1c0.3,0,0.5,0.2,0.5,0.5C49.2,180.9,49,181.2,48.7,181.2z M53.7,181
					c-0.2,0-0.5-0.2-0.5-0.4c0-0.3,0.2-0.5,0.5-0.6c0.7-0.1,1.3-0.1,2-0.2c0.3,0,0.5,0.1,0.6,0.4s-0.2,0.5-0.4,0.6
					C55.1,180.9,54.4,181,53.7,181C53.7,181,53.7,181,53.7,181z M45.2,180.8C45.2,180.8,45.1,180.8,45.2,180.8
					c-0.8-0.1-1.4-0.2-2.1-0.3c-0.3-0.1-0.5-0.3-0.4-0.6c0-0.3,0.3-0.4,0.6-0.4c0.7,0.1,1.3,0.2,2,0.3c0.3,0,0.5,0.3,0.4,0.6
					C45.7,180.7,45.4,180.8,45.2,180.8z M57.2,180.5c-0.2,0-0.4-0.2-0.5-0.4c0-0.3,0.1-0.5,0.4-0.6c0.7-0.1,1.3-0.3,1.9-0.4
					c0.3-0.1,0.5,0.1,0.6,0.4s-0.1,0.5-0.4,0.6C58.6,180.2,58,180.4,57.2,180.5C57.2,180.5,57.2,180.5,57.2,180.5z M41.7,180.2
					c0,0-0.1,0-0.1,0c-0.7-0.2-1.3-0.3-2-0.5c-0.3-0.1-0.4-0.4-0.3-0.6c0.1-0.3,0.4-0.4,0.6-0.3c0.6,0.2,1.3,0.4,1.9,0.5
					c0.3,0.1,0.4,0.3,0.4,0.6C42.2,180,42,180.2,41.7,180.2z M60.6,179.7c-0.2,0-0.4-0.1-0.5-0.4c-0.1-0.3,0.1-0.5,0.3-0.6
					c0.6-0.2,1.3-0.4,1.9-0.6c0.3-0.1,0.5,0,0.6,0.3c0.1,0.3,0,0.6-0.3,0.6c-0.6,0.2-1.3,0.4-1.9,0.6
					C60.7,179.7,60.6,179.7,60.6,179.7z M38.4,179.2c0,0-0.1,0-0.2,0c-0.6-0.2-1.3-0.5-1.9-0.7c-0.3-0.1-0.4-0.4-0.3-0.6
					s0.4-0.4,0.7-0.3c0.6,0.2,1.2,0.5,1.9,0.7c0.3,0.1,0.4,0.4,0.3,0.6C38.8,179.1,38.6,179.2,38.4,179.2z M63.9,178.5
					c-0.2,0-0.4-0.1-0.5-0.3c-0.1-0.3,0-0.6,0.3-0.6c0.6-0.2,1.2-0.5,1.8-0.8c0.2-0.1,0.6,0,0.7,0.2c0.1,0.2,0,0.6-0.2,0.7
					c-0.6,0.3-1.2,0.6-1.9,0.8C64,178.5,64,178.5,63.9,178.5z M35.1,177.9c-0.1,0-0.1,0-0.2-0.1c-0.6-0.3-1.2-0.6-1.8-0.9
					c-0.2-0.1-0.3-0.4-0.2-0.7s0.4-0.3,0.7-0.2c0.6,0.3,1.2,0.6,1.8,0.9c0.2,0.1,0.4,0.4,0.2,0.7C35.5,177.8,35.3,177.9,35.1,177.9z
					 M67.1,177c-0.2,0-0.3-0.1-0.4-0.3c-0.1-0.2,0-0.6,0.2-0.7c0.6-0.3,1.2-0.6,1.7-1c0.2-0.1,0.5-0.1,0.7,0.2s0.1,0.5-0.2,0.7
					c-0.6,0.4-1.2,0.7-1.8,1C67.2,177,67.2,177,67.1,177z M32,176.3c-0.1,0-0.2,0-0.2-0.1c-0.6-0.3-1.2-0.7-1.7-1.1
					c-0.2-0.1-0.3-0.5-0.1-0.7c0.1-0.2,0.5-0.3,0.7-0.1c0.5,0.4,1.1,0.7,1.7,1.1c0.2,0.1,0.3,0.4,0.2,0.7
					C32.3,176.2,32.2,176.3,32,176.3z M70.1,175.2c-0.2,0-0.3-0.1-0.4-0.2c-0.2-0.2-0.1-0.5,0.1-0.7c0.6-0.4,1.1-0.7,1.6-1.1
					c0.2-0.2,0.5-0.1,0.7,0.1s0.1,0.5-0.1,0.7c-0.5,0.4-1.1,0.8-1.7,1.2C70.3,175.2,70.2,175.2,70.1,175.2z M29,174.3
					c-0.1,0-0.2,0-0.3-0.1c-0.5-0.4-1.1-0.8-1.6-1.2c-0.2-0.2-0.2-0.5-0.1-0.7c0.2-0.2,0.5-0.2,0.7-0.1c0.5,0.4,1,0.8,1.6,1.2
					c0.2,0.2,0.3,0.5,0.1,0.7C29.3,174.3,29.2,174.3,29,174.3z M72.9,173.1c-0.2,0-0.3-0.1-0.4-0.2c-0.2-0.2-0.1-0.5,0.1-0.7
					c0.5-0.4,1-0.9,1.5-1.3c0.2-0.2,0.5-0.2,0.7,0c0.2,0.2,0.2,0.5,0,0.7c-0.5,0.5-1,0.9-1.6,1.3C73.2,173.1,73,173.1,72.9,173.1z
					 M26.3,172.1c-0.1,0-0.2,0-0.3-0.1c-0.5-0.4-1-0.9-1.5-1.4c-0.2-0.2-0.2-0.5,0-0.7c0.2-0.2,0.5-0.2,0.7,0c0.5,0.5,1,0.9,1.5,1.4
					c0.2,0.2,0.2,0.5,0,0.7C26.6,172.1,26.4,172.1,26.3,172.1z M75.6,170.8c-0.1,0-0.3-0.1-0.4-0.1c-0.2-0.2-0.2-0.5,0-0.7
					c0.5-0.5,0.9-0.9,1.4-1.4c0.2-0.2,0.5-0.2,0.7,0c0.2,0.2,0.2,0.5,0,0.7c-0.5,0.5-0.9,1-1.4,1.5
					C75.8,170.7,75.7,170.8,75.6,170.8z M23.8,169.7c-0.1,0-0.3-0.1-0.4-0.2c-0.5-0.5-0.9-1-1.4-1.5c-0.2-0.2-0.1-0.5,0.1-0.7
					c0.2-0.2,0.5-0.1,0.7,0.1c0.4,0.5,0.9,1,1.3,1.5c0.2,0.2,0.2,0.5,0,0.7C24,169.6,23.9,169.7,23.8,169.7z M77.9,168.2
					c-0.1,0-0.2,0-0.3-0.1c-0.2-0.2-0.2-0.5-0.1-0.7c0.4-0.5,0.8-1,1.2-1.6c0.2-0.2,0.5-0.3,0.7-0.1c0.2,0.2,0.3,0.5,0.1,0.7
					c-0.4,0.5-0.8,1.1-1.3,1.6C78.2,168.1,78.1,168.2,77.9,168.2z M21.5,167c-0.1,0-0.3-0.1-0.4-0.2c-0.4-0.5-0.8-1.1-1.2-1.6
					c-0.2-0.2-0.1-0.5,0.1-0.7c0.2-0.1,0.5-0.1,0.7,0.1c0.4,0.5,0.8,1.1,1.2,1.6c0.2,0.2,0.1,0.5-0.1,0.7
					C21.7,167,21.6,167,21.5,167z M19.5,164.1c-0.2,0-0.3-0.1-0.4-0.2c-0.4-0.6-0.7-1.2-1-1.8c-0.1-0.2,0-0.6,0.2-0.7
					c0.2-0.1,0.5,0,0.7,0.2c0.3,0.6,0.6,1.1,1,1.7c0.1,0.2,0.1,0.5-0.2,0.7C19.7,164.1,19.6,164.1,19.5,164.1z M17.8,161.1
					c-0.2,0-0.4-0.1-0.5-0.3c-0.3-0.6-0.6-1.2-0.9-1.9c-0.1-0.2,0-0.6,0.3-0.7s0.5,0,0.7,0.3c0.3,0.6,0.5,1.2,0.8,1.8
					c0.1,0.2,0,0.6-0.2,0.7C18,161,17.9,161.1,17.8,161.1z M16.4,157.8c-0.2,0-0.4-0.1-0.5-0.3c-0.2-0.6-0.5-1.3-0.7-1.9
					c-0.1-0.3,0.1-0.5,0.3-0.6c0.3-0.1,0.6,0.1,0.6,0.3c0.2,0.6,0.4,1.2,0.6,1.9c0.1,0.3,0,0.6-0.3,0.6
					C16.5,157.8,16.5,157.8,16.4,157.8z M15.3,154.5c-0.2,0-0.4-0.1-0.5-0.4c-0.2-0.6-0.3-1.3-0.5-2c-0.1-0.3,0.1-0.5,0.4-0.6
					s0.5,0.1,0.6,0.4c0.1,0.6,0.3,1.3,0.5,1.9c0.1,0.3-0.1,0.5-0.4,0.6C15.4,154.5,15.4,154.5,15.3,154.5z M14.6,151.1
					c-0.2,0-0.4-0.2-0.5-0.4c-0.1-0.7-0.2-1.3-0.3-2c0-0.3,0.2-0.5,0.4-0.6c0.3,0,0.5,0.2,0.6,0.4c0.1,0.7,0.2,1.3,0.3,2
					C15.1,150.8,14.9,151,14.6,151.1C14.6,151.1,14.6,151.1,14.6,151.1z M14.1,147.6c-0.3,0-0.5-0.2-0.5-0.5c-0.1-0.7-0.1-1.4-0.1-2
					c0-0.3,0.2-0.5,0.5-0.5c0.3,0,0.5,0.2,0.5,0.5c0,0.7,0,1.3,0.1,2C14.7,147.3,14.5,147.6,14.1,147.6
					C14.2,147.6,14.1,147.6,14.1,147.6z M14.1,144.1L14.1,144.1c-0.3,0-0.5-0.2-0.5-0.5c0-0.7,0.1-1.4,0.1-2c0-0.3,0.3-0.5,0.5-0.5
					c0.3,0,0.5,0.3,0.5,0.5c-0.1,0.6-0.1,1.3-0.1,2C14.6,143.9,14.3,144.1,14.1,144.1z M14.3,140.6
					C14.3,140.6,14.3,140.6,14.3,140.6c-0.3,0-0.5-0.3-0.5-0.6c0.1-0.7,0.2-1.4,0.3-2c0.1-0.3,0.3-0.4,0.6-0.4
					c0.3,0.1,0.4,0.3,0.4,0.6c-0.1,0.6-0.2,1.3-0.3,2C14.8,140.4,14.6,140.6,14.3,140.6z M14.9,137.1c0,0-0.1,0-0.1,0
					c-0.3-0.1-0.4-0.3-0.4-0.6c0.1-0.7,0.3-1.3,0.5-2c0.1-0.3,0.4-0.4,0.6-0.3c0.3,0.1,0.4,0.4,0.3,0.6c-0.2,0.6-0.3,1.3-0.5,1.9
					C15.4,136.9,15.2,137.1,14.9,137.1z M15.9,133.7c-0.1,0-0.1,0-0.2,0c-0.3-0.1-0.4-0.4-0.3-0.6c0.2-0.6,0.4-1.3,0.7-1.9
					c0.1-0.3,0.4-0.4,0.6-0.3c0.3,0.1,0.4,0.4,0.3,0.6c-0.2,0.6-0.5,1.2-0.7,1.9C16.3,133.6,16.1,133.7,15.9,133.7z M17.1,130.4
					c-0.1,0-0.1,0-0.2,0c-0.2-0.1-0.4-0.4-0.2-0.7c0.3-0.6,0.6-1.2,0.9-1.8c0.1-0.2,0.4-0.3,0.7-0.2c0.2,0.1,0.3,0.4,0.2,0.7
					c-0.3,0.6-0.6,1.2-0.9,1.8C17.5,130.3,17.3,130.4,17.1,130.4z"/>
			</g>
		</g>
		<g>
			<g>
				<path class="st0" d="M18.7,127.2c-0.1,0-0.2,0-0.2-0.1c-0.2-0.1-0.3-0.4-0.2-0.7c0.2-0.3,0.3-0.6,0.5-0.9
					c0.1-0.2,0.5-0.3,0.7-0.2s0.3,0.4,0.2,0.7c-0.2,0.3-0.3,0.6-0.5,0.8C19.1,127.2,18.9,127.2,18.7,127.2z"/>
			</g>
		</g>
	</g>
</g>
</svg>
